<?xml version="1.0" encoding="UTF-8" standalone="no"?>
<svg
   width="24"
   height="24"
   version="1.1"
   id="svg6"
   sodipodi:docname="customtkinter_icon_dark.svg"
   inkscape:version="1.4.2 (f4327f4, 2025-05-13)"
   xmlns:inkscape="http://www.inkscape.org/namespaces/inkscape"
   xmlns:sodipodi="http://sodipodi.sourceforge.net/DTD/sodipodi-0.dtd"
   xmlns="http://www.w3.org/2000/svg"
   xmlns:svg="http://www.w3.org/2000/svg">
  <sodipodi:namedview
     id="namedview6"
     pagecolor="#ffffff"
     bordercolor="#000000"
     borderopacity="0.25"
     inkscape:showpageshadow="2"
     inkscape:pageopacity="0.0"
     inkscape:pagecheckerboard="0"
     inkscape:deskcolor="#d1d1d1"
     inkscape:zoom="9.5312102"
     inkscape:cx="31.895215"
     inkscape:cy="7.1869153"
     inkscape:window-width="1440"
     inkscape:window-height="854"
     inkscape:window-x="-6"
     inkscape:window-y="-6"
     inkscape:window-maximized="1"
     inkscape:current-layer="svg6" />
  <defs
     id="defs4">
    <!-- masque : blanc = visible, noir = masqué -->
    <mask
       id="halfLeft">
      <rect
         width="238"
         height="238"
         fill="black"
         id="rect1" />
      <rect
         x="0"
         y="0"
         width="119"
         height="238"
         fill="white"
         id="rect2" />
    </mask>
    <mask
       id="halfRight">
      <rect
         width="238"
         height="238"
         fill="black"
         id="rect3" />
      <rect
         x="119"
         y="0"
         width="119"
         height="238"
         fill="white"
         id="rect4" />
    </mask>
    <mask
       id="halfLeft-0">
      <rect
         width="238"
         height="238"
         fill="#000000"
         id="rect1-9"
         x="0"
         y="0" />
      <rect
         x="0"
         y="0"
         width="119"
         height="238"
         fill="#ffffff"
         id="rect2-4" />
    </mask>
    <mask
       id="halfLeft-0-2">
      <rect
         width="238"
         height="238"
         fill="#000000"
         id="rect1-9-4"
         x="0"
         y="0" />
      <rect
         x="0"
         y="0"
         width="119"
         height="238"
         fill="#ffffff"
         id="rect2-4-5" />
    </mask>
    <mask
       id="halfLeft-0-2-7">
      <rect
         width="238"
         height="238"
         fill="#000000"
         id="rect1-9-4-1"
         x="0"
         y="0" />
      <rect
         x="0"
         y="0"
         width="119"
         height="238"
         fill="#ffffff"
         id="rect2-4-5-1" />
    </mask>
    <mask
       id="halfLeft-0-4">
      <rect
         width="238"
         height="238"
         fill="#000000"
         id="rect1-9-2"
         x="0"
         y="0" />
      <rect
         x="0"
         y="0"
         width="119"
         height="238"
         fill="#ffffff"
         id="rect2-4-3" />
    </mask>
  </defs>
  <path
     d="m 76,28 h 110 a 48,48 0 0 1 48,48 v 104 a 48,48 0 0 1 -48,48 H 82 A 48,48 0 0 1 34,180 V 76 A 48,48 0 0 1 82,28 Z m 22,38 h 70 a 32,32 0 0 1 32,32 v 60 a 32,32 0 0 1 -32,32 H 108 A 32,32 0 0 1 76,158 V 98 a 32,32 0 0 1 32,-32 z"
     fill="#53bfa3"
     fill-rule="evenodd"
     mask="url(#halfLeft)"
     id="path5"
     transform="matrix(0.13454215,0,0,0.11596577,-4.4239094,-2.6668158)" />
  <path
     d="m 76,28 h 110 a 48,48 0 0 1 48,48 v 104 a 48,48 0 0 1 -48,48 H 82 A 48,48 0 0 1 34,180 V 76 A 48,48 0 0 1 82,28 Z m 22,38 h 70 a 32,32 0 0 1 32,32 v 60 a 32,32 0 0 1 -32,32 H 108 A 32,32 0 0 1 76,158 V 98 a 32,32 0 0 1 32,-32 z"
     fill="#53bfa3"
     fill-rule="evenodd"
     mask="url(#halfLeft-0)"
     id="path5-8"
     transform="matrix(-0.13454215,0,0,-0.11596577,28.440247,27.039677)"
     style="fill:#71cbb3;fill-opacity:1" />
  <path
     d="m 76,28 h 110 a 48,48 0 0 1 48,48 v 104 a 48,48 0 0 1 -48,48 H 82 A 48,48 0 0 1 34,180 V 76 A 48,48 0 0 1 82,28 Z m 22,38 h 70 a 32,32 0 0 1 32,32 v 60 a 32,32 0 0 1 -32,32 H 108 A 32,32 0 0 1 76,158 V 98 a 32,32 0 0 1 32,-32 z"
     fill="#53bfa3"
     fill-rule="evenodd"
     mask="url(#halfLeft-0-4)"
     id="path5-8-2"
     transform="matrix(-0.12919941,0,0,-0.09971678,27.93129,25.117941)"
     style="fill:#71cbb3;fill-opacity:1" />
  <path
     d="m 76,28 h 110 a 48,48 0 0 1 48,48 v 104 a 48,48 0 0 1 -48,48 H 82 A 48,48 0 0 1 34,180 V 76 A 48,48 0 0 1 82,28 Z m 22,38 h 70 a 32,32 0 0 1 32,32 v 60 a 32,32 0 0 1 -32,32 H 108 A 32,32 0 0 1 76,158 V 98 a 32,32 0 0 1 32,-32 z"
     fill="#53bfa3"
     fill-rule="evenodd"
     mask="url(#halfLeft-0-2)"
     id="path5-8-1"
     transform="matrix(0.14190607,0,0,0.09474731,-4.3897762,0.21286546)"
     style="fill:#53bfa3;fill-opacity:1" />
  <ellipse
     cx="16.244667"
     cy="3.5410485"
     fill="#53bfa3"
     id="circle6"
     rx="2.9931715"
     ry="2.9106264"
     style="stroke-width:0.15535" />
  <rect
     x="10.19701"
     y="0.6094147"
     width="6.162106"
     height="5.8237729"
     fill="#53bfa3"
     id="rect6"
     style="stroke-width:0.125458" />
  <ellipse
     cx="16.165932"
     cy="20.947941"
     fill="#53bfa3"
     id="circle6-6"
     rx="2.9931715"
     ry="2.8366351"
     style="stroke-width:0.153362" />
  <rect
     x="10.127725"
     y="18.164425"
     width="6.162106"
     height="5.610929"
     fill="#53bfa3"
     id="rect6-1"
     style="stroke-width:0.123144" />
</svg>
