<?xml version="1.0" encoding="UTF-8" standalone="no"?>
<svg
   width="24"
   height="24"
   viewBox="0 0 256 256"
   fill="none"
   version="1.1"
   id="svg6"
   sodipodi:docname="hugging_face_icon_dark.svg"
   inkscape:version="1.4.2 (f4327f4, 2025-05-13)"
   xmlns:inkscape="http://www.inkscape.org/namespaces/inkscape"
   xmlns:sodipodi="http://sodipodi.sourceforge.net/DTD/sodipodi-0.dtd"
   xmlns="http://www.w3.org/2000/svg"
   xmlns:svg="http://www.w3.org/2000/svg">
  <defs
     id="defs6" />
  <sodipodi:namedview
     id="namedview6"
     pagecolor="#ffffff"
     bordercolor="#000000"
     borderopacity="0.25"
     inkscape:showpageshadow="2"
     inkscape:pageopacity="0.0"
     inkscape:pagecheckerboard="0"
     inkscape:deskcolor="#d1d1d1"
     inkscape:zoom="20.21875"
     inkscape:cx="13.007728"
     inkscape:cy="13.477589"
     inkscape:window-width="1440"
     inkscape:window-height="854"
     inkscape:window-x="-6"
     inkscape:window-y="-6"
     inkscape:window-maximized="1"
     inkscape:current-layer="svg6" />
  <path
     d="m 244.34012,199.63613 c 1.236,-1.92905 2.06495,-4.1082 2.43255,-6.39382 0.36636,-2.2869 0.26397,-4.62767 -0.301,-6.86967 -0.81907,-3.23603 -2.51148,-5.92695 -4.80711,-7.85985 1.10649,-1.89057 1.83182,-3.99405 2.1328,-6.18475 0.66242,-4.76363 -0.85854,-9.51955 -4.28038,-13.39817 -2.66199,-3.01799 -6.42922,-4.67897 -10.59859,-4.67897 -0.48478,0 -0.9782,0.0269 -1.48148,0.0783 3.16033,-10.50204 4.7627,-21.44271 4.7516,-32.44625 0,-59.861949 -46.67226,-108.393433 -104.24532,-108.393433 -57.574294,0 -104.251608,48.526353 -104.251608,108.393433 -0.01036,10.97532 1.583496,21.88906 4.727052,32.36672 h -0.111142 c -4.169369,0 -7.935246,1.65971 -10.598461,4.67769 -3.420609,3.87477 -4.942922,8.63583 -4.280511,13.39817 0.301848,2.1907 1.027787,4.29547 2.134026,6.18604 -2.296853,1.93161 -3.989148,4.62254 -4.80822,7.85857 -0.564715,2.24328 -0.666482,4.58405 -0.29864,6.87095 0.367842,2.28561 1.196782,4.46605 2.432543,6.3951 -0.219571,0.35657 -0.421871,0.72468 -0.61307,1.10305 -2.060013,4.06717 -2.193112,8.66277 -0.373639,12.94284 2.758198,6.48617 9.609161,11.5961 22.915368,17.08183 8.273359,3.41175 15.851125,5.59348 15.917736,5.61271 10.943976,2.9513 20.84191,4.45067 29.410086,4.45067 14.069768,0 24.5672,-4.00175 31.2715,-11.90778 11.34364,1.87134 22.90438,1.80208 34.22706,-0.20265 6.69566,8.03941 17.25353,12.11043 31.44173,12.11043 8.56818,0 18.46611,-1.49937 29.40885,-4.45067 0.0678,-0.0192 7.64178,-2.20096 15.91884,-5.61271 13.30621,-5.48573 20.15854,-10.59566 22.9155,-17.08183 1.81823,-4.28007 1.68625,-8.87567 -0.375,-12.94284 -0.1875,-0.38093 -0.39473,-0.75033 -0.61307,-1.10305 z m -137.72115,16.90612 c -0.5773,1.04918 -1.1953,2.07398 -1.85278,3.07057 -1.73312,2.63834 -4.01271,4.65461 -6.658657,6.1527 -5.057641,2.86791 -11.459595,3.86964 -17.962823,3.86964 -10.274164,0 -20.806137,-2.49982 -26.708631,-4.09153 -0.291115,-0.0783 -36.184692,-10.62003 -31.640327,-19.59319 0.764796,-1.50963 2.022885,-2.11247 3.607984,-2.11247 6.398377,0 18.049173,9.9069 23.056116,9.9069 1.118821,0 1.908288,-0.49509 2.230242,-1.70331 2.134026,-7.95733 -32.433495,-11.30237 -29.522337,-22.82537 0.513153,-2.03935 1.907178,-2.86792 3.86604,-2.86792 8.459625,-9.5e-4 27.446288,15.4683 31.417057,15.4683 0.304684,0 0.522897,-0.0936 0.641317,-0.28858 0.01727,-0.0295 0.03466,-0.0577 0.0507,-0.0885 1.863881,-3.20012 0.794277,-5.52678 -11.974106,-13.65854 l -1.22614,-0.77598 C 29.89136,178.16264 20.029199,172.84108 25.63811,166.49215 c 0.645142,-0.73237 1.56043,-1.05687 2.67185,-1.05687 1.317422,0 2.912391,0.45789 4.668953,1.22746 7.420983,3.25399 17.706371,12.12839 22.002795,15.99803 0.675856,0.61051 1.347396,1.22745 2.014249,1.84824 0,0 5.440038,5.88206 8.728659,5.88206 0.757394,0 1.399946,-0.3104 1.835386,-1.0774 2.332749,-4.08896 -21.664681,-22.99724 -23.017875,-30.79937 -0.917755,-5.28564 0.643908,-7.96374 3.530394,-7.96374 1.372931,0 3.04808,0.60796 4.897157,1.82773 5.735966,3.78499 16.810698,23.57312 20.865347,31.27137 1.359362,2.57933 3.679653,3.66955 5.770505,3.66955 4.148398,0 7.391377,-4.28778 0.37993,-9.73631 -10.53814,-8.19846 -6.839861,-21.59919 -1.810714,-22.42391 0.214636,-0.0359 0.431616,-0.0539 0.647485,-0.0539 4.573971,0 6.59081,8.19461 6.59081,8.19461 0,0 5.913595,15.44009 16.071929,25.9947 9.21702,9.57983 10.50483,17.44097 5.134,27.24782 z m 32.84796,1.80848 -0.52672,0.0655 -0.89802,0.10645 c -0.47244,0.0513 -0.94613,0.10004 -1.42104,0.14494 l -0.46258,0.0436 -0.4231,0.0372 -0.5995,0.05 -0.66242,0.05 -0.66117,0.0449 -0.1468,0.0102 c -0.17269,0.0102 -0.34539,0.0218 -0.52055,0.0308 l -0.2208,0.0128 c -0.20477,0.0116 -0.40954,0.0218 -0.61678,0.0308 l -0.71668,0.0321 -0.65008,0.0231 -0.43421,0.0128 h -0.2208 c -0.13569,0 -0.27015,0.008 -0.40583,0.009 h -0.21464 c -0.13569,0 -0.27014,0 -0.40583,0.007 l -0.55262,0.008 h -0.77097 c -0.60567,0 -1.2101,-0.007 -1.81208,-0.0192 l -0.48847,-0.0116 c -0.1394,0 -0.27878,-0.007 -0.4157,-0.0116 l -0.51809,-0.0154 -0.64268,-0.0256 -0.57976,-0.0269 -0.14927,-0.007 -0.55139,-0.0295 c -0.15419,-0.009 -0.30592,-0.0166 -0.45887,-0.0282 l -0.35649,-0.0218 c -0.44778,-0.0295 -0.89555,-0.0616 -1.34333,-0.0975 l -0.46875,-0.0397 c -0.19736,-0.0154 -0.39473,-0.0346 -0.59086,-0.0526 -0.23068,-0.0206 -0.46135,-0.0436 -0.69202,-0.0667 -0.3861,-0.0372 -0.7722,-0.0783 -1.1583,-0.12184 h -0.0185 c 5.63728,-13.07623 2.78657,-25.28927 -8.60518,-37.12394 -7.47156,-7.75852 -12.441497,-19.21481 -13.472738,-21.73002 -2.087274,-7.44556 -7.610948,-15.72225 -16.784792,-15.72225 -0.775898,0 -1.550562,0.0641 -2.316591,0.18982 -4.018876,0.65798 -7.532001,3.06288 -10.038557,6.68241 -2.708855,-3.50281 -5.341232,-6.28737 -7.721966,-7.85984 -3.589604,-2.36642 -7.17193,-3.56695 -10.661619,-3.56695 -4.355633,0 -8.248688,1.85979 -10.962479,5.23306 l -0.06908,0.0859 c -0.05181,-0.22189 -0.101151,-0.44378 -0.151726,-0.66695 l -0.0062,-0.0295 c -0.516483,-2.29588 -0.950073,-4.611 -1.300151,-6.9415 0,-0.0154 0,-0.0308 -0.0074,-0.0462 -0.02714,-0.17572 -0.05181,-0.35271 -0.07771,-0.52844 -0.07586,-0.52074 -0.147039,-1.04276 -0.213403,-1.56478 -0.02961,-0.23729 -0.06167,-0.47456 -0.09004,-0.71185 l -0.08388,-0.71185 c -0.02714,-0.23728 -0.04934,-0.45276 -0.07402,-0.6785 l -0.0073,-0.0565 c -0.09856,-0.92349 -0.184908,-1.84697 -0.259167,-2.77301 l -0.02714,-0.35528 -0.04317,-0.60539 c -0.01233,-0.16546 -0.02468,-0.3322 -0.03331,-0.49895 0,-0.0397 -0.0062,-0.0783 -0.0074,-0.11543 -0.03133,-0.4643 -0.0581,-0.92989 -0.08018,-1.39548 -0.01233,-0.24241 -0.02468,-0.48355 -0.03454,-0.72724 l -0.02468,-0.63617 -0.0062,-0.1924 -0.01974,-0.58615 -0.01233,-0.49894 c 0,-0.1988 -0.0099,-0.39761 -0.01233,-0.59641 -0.0037,-0.1988 -0.0086,-0.41685 -0.0099,-0.6272 -0.0025,-0.21035 0,-0.41813 -0.0062,-0.6272 -0.0049,-0.21035 0,-0.41941 0,-0.62848 0,-53.681046 41.85528,-97.201363 93.487719,-97.201363 51.6311,0 93.48515,43.519034 93.48515,97.201363 v 1.25568 c 0,0.20907 -0.007,0.41941 -0.01,0.6272 0,0.17315 -0.008,0.34374 -0.0123,0.51945 0,0.15392 -0.007,0.30912 -0.0111,0.4579 0,0.19624 -0.0111,0.39247 -0.0172,0.58872 v 0.0154 l -0.0259,0.68106 c -0.009,0.19882 -0.016,0.3989 -0.0259,0.5977 l -0.007,0.14109 -0.0333,0.63618 c -0.0727,1.36342 -0.1727,2.72427 -0.29729,4.08383 v 0.0166 c -0.0209,0.22317 -0.042,0.44635 -0.0654,0.66952 l -0.0555,0.52716 -0.10978,1.03121 -0.0629,0.52203 -0.0777,0.61437 c -0.0283,0.22317 -0.0567,0.44764 -0.0888,0.66953 -0.0321,0.2501 -0.0678,0.49893 -0.10362,0.74775 l -0.0851,0.58873 -0.10115,0.66695 c -0.0346,0.22189 -0.0715,0.44251 -0.11102,0.66312 -0.0407,0.22189 -0.0727,0.4425 -0.10979,0.6631 -0.074,0.44122 -0.15173,0.88244 -0.23313,1.32238 -0.12459,0.65798 -0.25165,1.31468 -0.38241,1.97137 l -0.13568,0.65029 c -0.0444,0.21676 -0.0925,0.4348 -0.13939,0.65157 -2.63114,-2.65886 -6.1159,-4.10693 -9.95838,-4.10693 -3.48722,0 -7.07312,1.19924 -10.6615,3.56566 -2.38073,1.57249 -5.01187,4.35832 -7.72196,7.85985 -2.51026,-3.61953 -6.02338,-6.02443 -10.03979,-6.68241 -0.76603,-0.12569 -1.54069,-0.18983 -2.31659,-0.18983 -9.17631,0 -14.69641,8.2767 -16.78479,15.72227 -1.03618,2.5152 -6.00735,13.97149 -13.48508,21.74156 -11.38434,11.79746 -14.25603,23.95535 -8.70756,36.97771 z m 96.51348,-26.17683 -0.037,0.11415 c -0.0938,0.25781 -0.2023,0.5092 -0.32442,0.75289 -0.0925,0.17957 -0.19244,0.35401 -0.30099,0.52331 -0.206,0.31937 -0.43174,0.62463 -0.67721,0.91194 -0.0567,0.0667 -0.11102,0.13339 -0.17517,0.1988 -0.0889,0.0988 -0.17886,0.19624 -0.27138,0.29116 -1.66034,1.71099 -4.19157,3.21166 -7.05338,4.5879 -0.32443,0.15263 -0.65378,0.30526 -0.9856,0.45917 l -0.33059,0.15264 c -0.2208,0.10132 -0.4416,0.20137 -0.67351,0.30013 -0.2208,0.10004 -0.45024,0.20008 -0.67968,0.29757 l -0.68831,0.29499 c -1.60979,0.68877 -3.25903,1.34547 -4.86757,1.99319 l -0.68831,0.27832 -0.67968,0.27704 c -0.45271,0.18342 -0.89925,0.36683 -1.3384,0.55024 l -0.65501,0.27448 -0.6439,0.2732 -0.31578,0.13852 c -0.21094,0.0911 -0.41694,0.18213 -0.62295,0.27319 -4.73309,2.11247 -8.1389,4.26085 -7.42344,6.92612 0.0197,0.0757 0.042,0.14749 0.0666,0.21804 0.0641,0.19752 0.15172,0.3835 0.26151,0.55921 0.0641,0.1039 0.13815,0.20266 0.22081,0.29244 0.84127,0.90937 2.37209,0.76572 4.30258,0.0436 0.27138,-0.1039 0.54152,-0.21164 0.8092,-0.32451 l 0.16777,-0.0719 c 0.4416,-0.19495 0.90912,-0.413 1.3865,-0.64899 0.11965,-0.059 0.24054,-0.11544 0.36142,-0.18085 2.361,-1.20053 5.03655,-2.81661 7.69113,-4.28777 1.06209,-0.59642 2.13896,-1.16205 3.22942,-1.69947 2.51395,-1.23002 4.87742,-2.1022 6.77707,-2.1022 0.89185,0 1.67884,0.18983 2.33509,0.62592 l 0.10979,0.0757 c 0.412,0.30142 0.75739,0.68876 1.0152,1.13767 0.0506,0.0859 0.0999,0.17701 0.14803,0.27064 0.93872,1.85337 0.15295,3.77216 -1.68625,5.65375 -1.76521,1.8072 -4.51107,3.57849 -7.63193,5.21768 -0.2319,0.12184 -0.46381,0.24369 -0.69941,0.36297 -9.28856,4.7431 -21.45251,8.31517 -21.62151,8.36007 -3.24174,0.87346 -7.87739,2.02011 -13.1002,2.87818 l -0.7722,0.12569 -0.12706,0.0192 c -0.58469,0.0923 -1.17062,0.17829 -1.75779,0.25782 -0.5958,0.0833 -1.19776,0.15903 -1.80343,0.22958 l -0.11103,0.0128 c -2.1957,0.26293 -4.40004,0.43737 -6.60931,0.52074 h -0.0321 c -0.79933,0.0295 -1.59744,0.0449 -2.39677,0.0449 h -0.92145 c -1.21874,-0.0166 -2.43501,-0.0744 -3.65005,-0.17186 -0.0284,0 -0.0592,0 -0.0876,-0.008 -0.43544,-0.0346 -0.86964,-0.0769 -1.30385,-0.12697 -0.45024,-0.05 -0.89926,-0.10646 -1.34703,-0.16931 -0.29482,-0.041 -0.5884,-0.0872 -0.88198,-0.13724 -0.29852,-0.05 -0.59704,-0.10132 -0.89432,-0.15519 l -0.40584,-0.0795 -0.0308,-0.007 c -0.42805,-0.0847 -0.85362,-0.17829 -1.27796,-0.2809 -0.24671,-0.0577 -0.49218,-0.11415 -0.73518,-0.18341 l -0.14679,-0.0385 c -0.12089,-0.0308 -0.23808,-0.0641 -0.35774,-0.0975 l -0.0654,-0.018 -0.37993,-0.11544 c -0.13816,-0.0397 -0.27632,-0.0833 -0.41447,-0.1257 l -0.0481,-0.0141 -0.35896,-0.11415 c -0.13569,-0.0436 -0.27138,-0.0898 -0.40583,-0.13596 l -0.3306,-0.11415 -0.243,-0.0885 c -0.23437,-0.0859 -0.46751,-0.17443 -0.69818,-0.26677 l -0.21958,-0.0898 -0.18133,-0.0744 c -0.35032,-0.14621 -0.69818,-0.29884 -1.04234,-0.45917 l -0.22821,-0.11543 -0.0383,-0.018 c -0.0814,-0.0397 -0.16158,-0.0795 -0.243,-0.11416 -0.15912,-0.0795 -0.31702,-0.16161 -0.47368,-0.24497 l -0.0481,-0.0244 -0.22697,-0.12441 c -0.40336,-0.21933 -0.7981,-0.45277 -1.18544,-0.70031 l -0.21217,-0.13596 c -0.10608,-0.068 -0.21216,-0.13852 -0.31577,-0.21035 l -0.27632,-0.18983 -0.29729,-0.21291 -0.17762,-0.1321 c -0.1875,-0.13853 -0.3713,-0.28218 -0.5514,-0.42968 l -0.28741,-0.22959 c -0.11472,-0.0962 -0.22821,-0.19368 -0.34046,-0.29243 -0.095,-0.0808 -0.1875,-0.16546 -0.28002,-0.25012 l -0.008,-0.007 c -0.0999,-0.0911 -0.19736,-0.18213 -0.29481,-0.27577 -0.0962,-0.0911 -0.19243,-0.18341 -0.28618,-0.27704 l -0.0111,-0.0116 c -0.0987,-0.0975 -0.1949,-0.19624 -0.28989,-0.29757 -0.095,-0.10005 -0.19243,-0.20008 -0.28495,-0.30269 -0.0925,-0.10133 -0.18749,-0.20523 -0.27878,-0.31168 -0.0913,-0.10517 -0.17516,-0.20137 -0.26151,-0.30526 l -0.0284,-0.0346 c -0.0838,-0.10005 -0.16652,-0.20138 -0.24793,-0.30527 -0.17641,-0.21933 -0.34786,-0.44378 -0.51316,-0.67337 -0.16653,-0.23087 -0.32936,-0.46687 -0.48848,-0.70672 l -0.15173,-0.236 c -0.2023,-0.30782 -0.39966,-0.61822 -0.59086,-0.93374 -0.14309,-0.22702 -0.28249,-0.45533 -0.41818,-0.68748 -0.0876,-0.14494 -0.17146,-0.29115 -0.25533,-0.4348 l -0.0346,-0.059 c -0.0801,-0.14109 -0.15912,-0.27961 -0.2356,-0.41941 -0.0444,-0.0757 -0.0864,-0.15135 -0.12582,-0.22959 -0.0407,-0.0795 -0.0876,-0.16032 -0.13076,-0.24113 l -0.0703,-0.12698 -0.0432,-0.0821 c -0.0826,-0.15391 -0.16406,-0.3091 -0.243,-0.46558 -0.037,-0.0693 -0.0728,-0.13852 -0.11102,-0.20523 l -0.10979,-0.22189 -0.11101,-0.21932 c -0.27755,-0.57718 -0.54029,-1.16205 -0.787,-1.75461 l -0.0876,-0.21676 c -0.0567,-0.14494 -0.10979,-0.28859 -0.16653,-0.43096 -0.0271,-0.0693 -0.0543,-0.13724 -0.0777,-0.20651 -0.13199,-0.35528 -0.25535,-0.71441 -0.36884,-1.0761 -0.0407,-0.12955 -0.0801,-0.25653 -0.11718,-0.38479 -0.0888,-0.29115 -0.16899,-0.58487 -0.24054,-0.88116 -0.0876,-0.34501 -0.1653,-0.6926 -0.23068,-1.04276 -0.0135,-0.0705 -0.0271,-0.14108 -0.0383,-0.20907 -0.0641,-0.34245 -0.11595,-0.68747 -0.15665,-1.03378 -0.01,-0.0679 -0.0172,-0.13596 -0.0246,-0.20393 l -0.0209,-0.20779 c -0.0271,-0.27191 -0.0481,-0.54511 -0.0604,-0.81831 0,-0.0693 -0.007,-0.13852 -0.009,-0.20521 -0.007,-0.13596 -0.009,-0.27191 -0.01,-0.40787 -0.0691,-5.48061 2.59784,-10.74958 8.3005,-16.67653 10.15821,-10.55205 16.0718,-25.99341 16.0718,-25.99341 0,0 0.15913,-0.64773 0.48972,-1.58019 0.0456,-0.12954 0.0938,-0.26293 0.14802,-0.40274 0.19243,-0.52202 0.40954,-1.03506 0.65008,-1.53529 l 0.0481,-0.0962 c 0.20478,-0.42583 0.42928,-0.84139 0.67105,-1.24542 0.0567,-0.0936 0.11103,-0.18598 0.17393,-0.2796 0.18133,-0.27833 0.37253,-0.55024 0.5736,-0.81318 0.10978,-0.14237 0.22944,-0.28346 0.34909,-0.4207 0.0481,-0.0539 0.095,-0.10774 0.14556,-0.15904 0.5884,-0.63234 1.26068,-1.14795 2.02177,-1.42242 l 0.0962,-0.0334 c 0.0641,-0.0218 0.12828,-0.0423 0.19366,-0.0615 0.0752,-0.0206 0.1505,-0.0385 0.22821,-0.0551 l 0.0358,-0.008 c 0.16036,-0.0334 0.32319,-0.0551 0.48725,-0.0667 h 0.0135 c 0.0852,0 0.17146,-0.009 0.25904,-0.009 0.10979,0 0.21217,0 0.31949,0.0116 0.11102,0.0102 0.2208,0.0231 0.33182,0.041 0.91529,0.15135 1.78617,0.71826 2.53616,1.593 0.28495,0.33349 0.54152,0.69262 0.76604,1.07227 0.14802,0.24626 0.28741,0.50663 0.41939,0.78111 0.0531,0.11416 0.10362,0.21932 0.15296,0.3322 0.12829,0.28987 0.24424,0.58487 0.3454,0.88628 0.24054,0.70544 0.42187,1.4314 0.54152,2.17018 0.10362,0.64773 0.16529,1.30186 0.18503,1.95727 0.01,0.35016 0.01,0.70544 0,1.06329 -0.0666,1.66483 -0.39473,3.30785 -0.97079,4.86366 -0.0518,0.14237 -0.10979,0.28602 -0.1653,0.42967 -0.11348,0.28988 -0.23807,0.57461 -0.37253,0.85294 -0.0999,0.21163 -0.20477,0.42455 -0.31825,0.63618 -0.074,0.14109 -0.15173,0.28217 -0.22944,0.42326 -0.1986,0.35143 -0.41324,0.70031 -0.64391,1.0479 l -0.13938,0.20777 c -0.54523,0.79009 -1.15214,1.53145 -1.81578,2.21636 -0.65378,0.68107 -1.35443,1.31083 -2.09578,1.88544 -0.7426,0.57205 -1.43955,1.20565 -2.08346,1.89442 -1.85401,2.02268 -2.28575,3.80808 -1.86882,5.16123 0.0666,0.21291 0.1542,0.41942 0.26028,0.61437 0.12459,0.22318 0.27262,0.4284 0.44038,0.61565 l 0.0654,0.0705 0.0666,0.0693 c 0.0666,0.0667 0.13692,0.1321 0.21217,0.19623 l 0.074,0.0615 c 0.17886,0.14365 0.36883,0.27191 0.56743,0.38478 0.058,0.032 0.10979,0.0641 0.17517,0.0949 0.21463,0.10902 0.43543,0.20265 0.66241,0.27832 0.0629,0.0218 0.12582,0.0411 0.18996,0.0615 l 0.0801,0.0218 0.11102,0.0308 0.095,0.0244 0.10362,0.0231 0.10239,0.0218 0.0975,0.0166 c 0.0715,0.0128 0.14555,0.0256 0.21957,0.0346 l 0.0703,0.0116 0.12828,0.0128 0.0789,0.009 0.12952,0.009 h 0.0764 l 0.13569,0.008 h 0.42681 l 0.12211,-0.008 0.14063,-0.009 0.17146,-0.0167 0.16037,-0.0192 c 0.037,0 0.074,-0.0102 0.11101,-0.018 0.49341,-0.0744 0.97696,-0.21034 1.43954,-0.40531 l 0.19614,-0.0859 c 0.10978,-0.05 0.2208,-0.10261 0.32195,-0.15905 0.21711,-0.11286 0.42804,-0.24112 0.63034,-0.38093 0.28248,-0.19239 0.54893,-0.40787 0.7981,-0.64515 0.0592,-0.0551 0.11719,-0.11416 0.17393,-0.17059 0.0284,-0.0282 0.0555,-0.0551 0.0827,-0.0859 0.0543,-0.0577 0.10978,-0.11415 0.16406,-0.17699 0.39473,-0.45149 0.73642,-0.94914 1.01767,-1.48399 2.41404,-4.56482 4.94403,-9.06166 7.58751,-13.48538 l 0.36266,-0.60411 0.36636,-0.60412 c 0.18257,-0.30654 0.3676,-0.60796 0.55139,-0.90809 l 0.18503,-0.30013 c 0.61431,-1.00044 1.23848,-1.99446 1.87376,-2.98078 l 0.37623,-0.58488 c 0.75492,-1.16333 1.50738,-2.29459 2.25368,-3.36943 l 0.37129,-0.53227 c 0.81167,-1.16334 1.65664,-2.3023 2.53369,-3.41303 l 0.34786,-0.43353 c 0.058,-0.0719 0.11102,-0.14366 0.17393,-0.21291 0.11472,-0.14109 0.22944,-0.27833 0.34169,-0.41172 0.0567,-0.0679 0.10978,-0.13467 0.17023,-0.20137 l 0.33059,-0.38735 0.16529,-0.18855 c 0.16653,-0.18598 0.32936,-0.36425 0.48972,-0.53485 0.11101,-0.11543 0.2134,-0.22958 0.31949,-0.33732 0.6254,-0.66439 1.31496,-1.26081 2.05878,-1.7777 l 0.1727,-0.11543 c 0.16529,-0.11545 0.33675,-0.22319 0.51191,-0.32066 2.91609,-1.72126 5.33013,-1.84824 6.72033,-0.40274 0.84128,0.87474 1.30756,2.32537 1.28165,4.34421 0,0.0885 0,0.17828 -0.007,0.27062 v 0.0988 c 0,0.0923 -0.008,0.1847 -0.0148,0.27832 0,0.11545 -0.0123,0.2296 -0.0234,0.34503 -0.0111,0.11415 -0.0172,0.20137 -0.0284,0.30398 0,0.0282 -0.005,0.0577 -0.01,0.0885 -0.008,0.0885 -0.0185,0.17957 -0.0309,0.27064 0,0.027 0,0.0551 -0.01,0.0833 -0.0135,0.12184 -0.0308,0.2424 -0.0506,0.36297 -0.0136,0.11543 -0.0321,0.22317 -0.0518,0.33604 l -0.032,0.19111 c -0.0321,0.18214 -0.0727,0.36171 -0.12336,0.5387 -0.0962,0.3322 -0.21217,0.6567 -0.34909,0.97222 -0.1912,0.43353 -0.40214,0.8555 -0.63404,1.26594 -0.12829,0.22831 -0.26028,0.45276 -0.3972,0.67465 -0.14063,0.22959 -0.28865,0.46174 -0.44161,0.69647 -0.38979,0.57973 -0.7944,1.14793 -1.21504,1.7033 l -0.19243,0.25267 c -0.68585,0.88886 -1.3939,1.75975 -2.12416,2.61012 l -0.23067,0.26935 c -0.31085,0.36041 -0.62664,0.7234 -0.94983,1.08765 l -0.243,0.27448 c -0.1616,0.18342 -0.3306,0.36684 -0.49342,0.55152 -0.16159,0.18342 -0.33059,0.3694 -0.50082,0.55538 l -0.50698,0.55537 -0.51439,0.55922 -0.51808,0.55922 c -0.34786,0.37452 -0.69696,0.74905 -1.04852,1.12357 -5.002,5.33439 -10.27169,10.65081 -12.05539,13.96508 -0.11966,0.21547 -0.22697,0.43866 -0.32319,0.66568 -0.25411,0.60282 -0.36019,1.11843 -0.28742,1.53528 0.0234,0.13724 0.0691,0.26807 0.13692,0.38864 0.0999,0.18084 0.22204,0.34758 0.3639,0.49637 0.0654,0.0667 0.13446,0.12826 0.20724,0.1847 0.36759,0.27191 0.81044,0.41171 1.26191,0.39888 h 0.14062 l 0.14433,-0.0116 0.14432,-0.0166 0.11966,-0.018 c 0.016,-0.003 0.0333,-0.005 0.0494,-0.0102 l 0.10978,-0.0218 0.0284,-0.007 0.12212,-0.0269 0.0432,-0.0116 c 0.0432,-0.0116 0.0851,-0.0231 0.12828,-0.0359 0.0432,-0.0128 0.10239,-0.0295 0.15419,-0.0475 0.21711,-0.0679 0.42928,-0.14878 0.63774,-0.24114 0.10979,-0.0462 0.21711,-0.0962 0.32319,-0.15006 0.0555,-0.0256 0.11102,-0.0526 0.16283,-0.0808 l 0.1653,-0.0847 c 0.39473,-0.21292 0.77959,-0.44507 1.15459,-0.6939 l 0.16406,-0.11543 c 0.0555,-0.0359 0.11102,-0.0731 0.16406,-0.11415 l 0.16406,-0.11416 0.0876,-0.0629 0.23684,-0.17316 c 0.2208,-0.15775 0.42681,-0.32064 0.63527,-0.4861 l 0.0185,-0.0154 0.33182,-0.26678 c 0.45271,-0.37196 0.88198,-0.74648 1.27178,-1.0992 l 0.25905,-0.236 0.0234,-0.0231 0.13569,-0.12441 c 0.31825,-0.29756 0.60197,-0.57461 0.83758,-0.80292 l 0.0975,-0.0987 c 0.0851,-0.0833 0.16282,-0.16161 0.23314,-0.22831 l 0.13816,-0.14237 0.0494,-0.05 0.0135,-0.0141 0.14432,-0.15007 0.0913,-0.0988 0.0111,-0.009 0.0432,-0.041 0.0543,-0.0513 0.0172,-0.0166 0.0457,-0.0436 0.25164,-0.22959 0.14063,-0.13083 c 0.0752,-0.0679 0.14802,-0.13723 0.22079,-0.20778 l 0.16777,-0.15519 c 0.0309,-0.0256 0.0604,-0.0539 0.0913,-0.0821 l 0.1764,-0.16033 0.25904,-0.23728 0.13817,-0.12441 c 0.53658,-0.48483 1.18913,-1.07099 1.93912,-1.73153 l 0.30715,-0.27063 0.50698,-0.4425 0.51932,-0.4502 c 0.67846,-0.58615 1.40871,-1.20822 2.18091,-1.85338 l 0.50698,-0.42325 c 0.43174,-0.35785 0.87458,-0.72212 1.32359,-1.08894 0.18134,-0.14751 0.36513,-0.295 0.55263,-0.44123 0.45888,-0.37067 0.92022,-0.73878 1.38527,-1.10176 1.05838,-0.83113 2.15006,-1.66354 3.25531,-2.47416 l 0.47368,-0.34373 c 0.33182,-0.23729 0.66241,-0.47586 0.993,-0.708 l 0.29975,-0.21035 c 0.59086,-0.41686 1.19037,-0.82344 1.7948,-1.21977 l 0.29976,-0.19624 0.29727,-0.19239 c 0.29852,-0.19239 0.59457,-0.38094 0.88939,-0.56435 l 0.29481,-0.18342 0.58964,-0.35656 0.57853,-0.34502 0.11719,-0.0667 0.45764,-0.26165 c 0.1912,-0.10774 0.38117,-0.21163 0.57113,-0.31296 l 0.28248,-0.15135 0.27508,-0.14365 c 0.0962,-0.0475 0.1912,-0.0975 0.28495,-0.14493 0.61923,-0.3181 1.25081,-0.61053 1.89225,-0.87731 0.17392,-0.0769 0.34662,-0.14622 0.51808,-0.2065 l 0.50576,-0.1847 c 0.15172,-0.0526 0.29975,-0.10261 0.44161,-0.1475 l 0.0494,-0.0154 c 0.0764,-0.0256 0.15295,-0.0487 0.2282,-0.0693 l 0.0222,-0.007 c 0.15789,-0.0475 0.31455,-0.0885 0.46874,-0.12698 h 0.0111 c 0.43667,-0.10902 0.88074,-0.18726 1.32852,-0.23471 0.206,-0.0218 0.412,-0.0334 0.61924,-0.0321 h 0.10362 c 0.13815,0 0.27138,0.009 0.40336,0.0231 0.0604,0 0.12089,0.0128 0.1801,0.0205 h 0.0246 c 0.0592,0.008 0.11842,0.0166 0.17763,0.0308 0.058,0.0116 0.11719,0.0218 0.17393,0.0359 h 0.0185 c 0.058,0.0128 0.10978,0.0282 0.17022,0.0462 0.31333,0.0911 0.61184,0.23216 0.88569,0.41685 0.13445,0.0911 0.26027,0.19367 0.37623,0.30783 l 0.0333,0.0333 c 0.0222,0.0206 0.0432,0.0423 0.0629,0.0641 l 0.0604,0.0679 c 0.49589,0.53998 0.90542,1.15948 1.21381,1.83413 l 0.0469,0.11544 c 0.10486,0.25652 0.18751,0.52203 0.24672,0.79266 0.17516,0.82856 0.10731,1.69304 -0.19491,2.48185 -0.11471,0.31808 -0.25411,0.62463 -0.41817,0.91706 -0.38363,0.67209 -0.8388,1.29673 -1.35566,1.86236 l -0.10978,0.12184 c -0.16406,0.17957 -0.3343,0.35914 -0.51315,0.5387 -0.0789,0.0808 -0.1616,0.16033 -0.24425,0.24114 l -0.25287,0.24241 -0.132,0.12184 c -0.31825,0.29501 -0.64514,0.58103 -0.97696,0.85808 -0.20107,0.1693 -0.40337,0.33476 -0.60813,0.49765 -0.72286,0.57461 -1.45929,1.1287 -2.20927,1.66354 -0.45271,0.32322 -0.90913,0.64003 -1.36924,0.95299 -1.13362,0.77342 -2.27958,1.52759 -3.43664,2.26124 -2.42761,1.55196 -5.11797,3.21166 -7.98594,5.0163 l -0.74259,0.46816 c -0.81291,0.51561 -1.58017,1.00813 -2.30302,1.47756 l -0.3639,0.23729 -0.68832,0.45918 c -0.45641,0.30397 -0.91158,0.61052 -1.36676,0.91706 l -0.36636,0.25139 c -0.17887,0.12057 -0.35649,0.24369 -0.53413,0.36683 l -0.17393,0.11543 -0.53288,0.37325 -0.28249,0.20136 -0.33059,0.23857 -0.30715,0.22189 c -0.51438,0.37837 -0.993,0.73878 -1.43338,1.08125 l -0.16529,0.13082 c -0.25904,0.20393 -0.51561,0.41172 -0.76849,0.62335 -0.38117,0.31937 -0.72902,0.62464 -1.04112,0.91835 l -0.15295,0.14494 c -0.0876,0.0833 -0.17393,0.16674 -0.25658,0.24882 -0.0567,0.0577 -0.10978,0.11544 -0.169,0.17059 l -0.0789,0.0821 c -0.17639,0.18469 -0.34909,0.37324 -0.51563,0.56691 l -0.0814,0.0975 c -0.18134,0.21804 -0.33923,0.42711 -0.47739,0.63105 l -0.0617,0.0911 c -0.10855,0.16418 -0.20847,0.33348 -0.29852,0.50792 -0.0234,0.0436 -0.0444,0.0873 -0.0654,0.13082 l -0.0604,0.13083 -0.0407,0.0949 -0.0259,0.0641 -0.0209,0.0577 -0.0283,0.0783 c -0.0764,0.21676 -0.12952,0.4425 -0.16036,0.67081 l -0.01,0.0795 -0.008,0.0744 v 0.40402 c 0,0.0334 0,0.0667 0.009,0.10261 l 0.007,0.0615 c 0,0.0334 0.008,0.0654 0.0123,0.10133 0.005,0.0333 0.0135,0.0936 0.0234,0.14109 v 0.007 c 0.009,0.0449 0.0172,0.0885 0.0284,0.13339 0.0111,0.0449 0.0222,0.0962 0.0358,0.14237 0.0234,0.0911 0.053,0.18085 0.0839,0.27063 0.0197,0.0539 0.0383,0.10646 0.0592,0.15905 0,0.0102 0.008,0.0218 0.0123,0.032 l 0.0444,0.10389 0.0617,0.14237 c 0.0666,0.14751 0.13939,0.29116 0.21834,0.43096 l 0.0814,0.14622 0.0838,0.14622 c 0.0148,0.0244 0.0321,0.0475 0.0506,0.0693 l 0.0271,0.0295 0.0309,0.0295 0.0321,0.0256 c 0.0469,0.0346 0.0975,0.0615 0.15049,0.0808 0.0284,0.0102 0.058,0.018 0.0876,0.0256 0.71175,0.16674 2.17473,-0.44506 4.1188,-1.51219 0.10978,-0.0616 0.23067,-0.1257 0.34785,-0.19239 l 0.5921,-0.33605 0.28865,-0.16674 c 0.206,-0.11415 0.4157,-0.2437 0.63034,-0.37068 l 0.39103,-0.22958 c 2.56947,-1.53785 5.63851,-3.51308 8.81119,-5.44213 0.29728,-0.18084 0.5958,-0.36169 0.89432,-0.53998 l 0.5995,-0.39889 c 0.69571,-0.41428 1.39513,-0.82344 2.09701,-1.22746 0.88445,-0.50535 1.77507,-0.99787 2.67432,-1.47501 l 0.58717,-0.3091 c 0.38979,-0.20009 0.7759,-0.39504 1.15706,-0.58487 0.73766,-0.36427 1.48395,-0.71057 2.23887,-1.03763 l 0.41324,-0.17444 0.0494,-0.0206 c 2.18954,-0.90167 4.17431,-1.45832 5.78037,-1.45832 0.34662,-0.004 0.69449,0.0269 1.03618,0.0885 h 0.0111 c 0.10979,0.0205 0.2097,0.0436 0.31209,0.0693 h 0.0185 c 0.26275,0.0693 0.51809,0.16802 0.75987,0.29499 0.33922,0.18214 0.6439,0.42455 0.90171,0.71699 0.11842,0.13596 0.22327,0.28345 0.31579,0.43993 0.1727,0.27577 0.30838,0.57461 0.40583,0.88758 0.0395,0.12184 0.074,0.24112 0.10979,0.3681 0.26028,0.97094 0.23437,2.00088 -0.074,2.95643 z"
     fill="#FF9D00"
     id="path2"
     style="fill:#71cbb3;fill-opacity:1;stroke-width:1.25784"
     sodipodi:nodetypes="ccccccsccsccsccccccccccsccsccccccccsccsscccscccccscccsccsccsccscccccccccccccccccccscsccsccccccccccccccccccscccsccccccccccccccccccccccccccsssscccccccccccccccccccccsccccscccscccccccccccccccccccccccccccccccccccscccccsccccccccccsccccccccccccccccccccccccccccccccsccccccccccccccccccccccccccccccccccccccsccccccccccccccccccccccccsccsscccccccccccccccccccccccccccccccccccccccccccccccccccccccsccccccccccccccccccccccccsccscccccccccccccccccccccccccccccccccccccccccsscccccccccccccccccccccccccccccccccccccccccccccccccccccccsccccccccccccccccccscscccccccccccccccccccccccccccccccccccccccccccccccccccscccccccccccscccccscccccccccccccscccccccccccccccccccccccccccc" />
  <path
     fill-rule="evenodd"
     clip-rule="evenodd"
     d="m 221.42833,122.51138 v -0.62976 c 0,-53.682463 -41.83925,-97.200216 -93.47157,-97.200216 -51.63097,0 -93.486374,43.520318 -93.486374,97.200216 v 0.21034 c -0.0025,0.13981 -0.0037,0.27961 0,0.41942 0.0061,0.20906 0.0081,0.41813 0.0062,0.6272 l 0.0063,0.46174 0.0036,0.16546 c 0,0.0769 0.0026,0.15262 0.005,0.22958 0.0037,0.12185 0.0061,0.24498 0.0061,0.36683 l 0.01356,0.49894 0.01974,0.58614 0.0062,0.19241 0.02467,0.60667 v 0.0295 c 0.0099,0.23727 0.02233,0.47328 0.03343,0.70928 l 0.0011,0.018 c 0.01233,0.24113 0.0248,0.48355 0.03959,0.72596 0.01233,0.22318 0.02455,0.44635 0.04058,0.66953 l 0.0026,0.0397 c 0.01073,0.19111 0.02306,0.3835 0.03688,0.57461 l 0.0037,0.0513 0.0407,0.55409 0.0038,0.0359 c 0.0074,0.10774 0.01468,0.21548 0.02454,0.31936 0.07377,0.92476 0.159744,1.84952 0.257934,2.77172 l 0.0061,0.0577 0.07525,0.6785 0.084,0.71185 0.06155,0.48355 0.02837,0.22702 c 0.06575,0.52331 0.136924,1.04533 0.213403,1.56607 l 0.005,0.0346 0.07265,0.49253 c 0.352176,2.3459 0.788356,4.67768 1.307554,6.99023 l 0.0063,0.0282 0.03935,0.17316 0.112252,0.4938 0.06908,-0.0859 c 2.71379,-3.37327 6.606845,-5.23307 10.962479,-5.23307 3.49092,0 7.072013,1.20054 10.661617,3.56695 2.380735,1.57248 5.013111,4.35703 7.721968,7.85985 2.506554,-3.61953 6.019679,-6.02571 10.038557,-6.68241 0.766275,-0.1257 1.540815,-0.18854 2.316589,-0.18982 9.172611,0 14.697518,8.27669 16.78467,15.72225 1.03124,2.51521 6.001181,13.9715 13.496171,21.72105 11.39299,11.83466 14.24371,24.04641 8.60519,37.12264 h 0.0197 c 0.38363,0.0449 0.76973,0.0859 1.15829,0.12314 0.23067,0.023 0.46012,0.0462 0.69202,0.0667 l 0.0814,0.008 0.50945,0.0449 0.46874,0.0385 c 0.44655,0.0359 0.89432,0.0693 1.34333,0.0988 l 0.3565,0.0218 0.28247,0.018 0.17517,0.0102 0.55139,0.0295 0.15049,0.007 0.57853,0.0269 0.64391,0.0257 0.51686,0.0154 0.0864,0.003 c 0.10979,0.005 0.21957,0.009 0.32935,0.009 l 0.11843,0.004 c 0.72778,0.018 1.45434,0.0269 2.18213,0.0256 h 0.77219 l 0.5514,-0.007 c 0.13569,-0.007 0.27015,-0.007 0.40707,-0.007 h 0.21463 l 0.18627,-0.005 c 0.0727,-0.003 0.14556,-0.005 0.21956,-0.005 h 0.22081 l 0.43297,-0.0116 0.65132,-0.0231 0.71668,-0.0334 c 0.20724,-0.008 0.41201,-0.0192 0.61677,-0.0295 l 0.22081,-0.0142 0.32812,-0.018 0.19243,-0.0116 0.14556,-0.0102 0.66241,-0.0449 0.66118,-0.05 0.60073,-0.05 0.42188,-0.0372 0.46381,-0.0436 c 0.77466,-0.0719 1.54685,-0.15648 2.31906,-0.25267 l 0.52671,-0.0654 c -5.5497,-13.02108 -2.67678,-25.18025 8.6681,-36.96745 7.47895,-7.77007 12.44889,-19.22636 13.48507,-21.74284 2.08839,-7.44428 7.60971,-15.72098 16.78479,-15.72098 0.7759,0 1.55179,0.0641 2.31783,0.18983 4.01517,0.65669 7.52829,3.06287 10.03855,6.6824 2.71009,-3.50153 5.34123,-6.28864 7.7232,-7.86113 3.58837,-2.36514 7.17304,-3.56566 10.66026,-3.56566 3.84372,0 7.32723,1.44936 9.95837,4.10821 0.0481,-0.21677 0.095,-0.43353 0.14063,-0.65157 l 0.13446,-0.649 c 0.0481,-0.23728 0.0962,-0.47457 0.14186,-0.71185 0.0815,-0.41941 0.16283,-0.83883 0.24054,-1.26209 0.0815,-0.43865 0.15912,-0.87987 0.23314,-1.3211 l 0.0383,-0.23855 c 0.0234,-0.1411 0.0456,-0.28219 0.0715,-0.42455 0.042,-0.22061 0.0764,-0.44122 0.11102,-0.66439 l 0.0135,-0.0847 0.0876,-0.58103 0.0863,-0.58872 v -0.005 c 0.0629,-0.43481 0.12212,-0.86962 0.17763,-1.30442 l 0.0135,-0.10774 0.0777,-0.61309 0.0629,-0.52331 0.11103,-1.03122 0.0432,-0.41428 0.0111,-0.11287 c 0.0234,-0.22317 0.0456,-0.44635 0.0653,-0.66953 v -0.018 c 0.016,-0.177 0.0334,-0.35528 0.0481,-0.53357 0.0876,-1.01069 0.1616,-2.02652 0.22081,-3.0462 0.0111,-0.16674 0.0197,-0.33476 0.0296,-0.50278 v -0.008 l 0.0321,-0.62976 0.008,-0.14109 c 0.0197,-0.42583 0.037,-0.85165 0.0506,-1.27748 v -0.0154 l 0.007,-0.16675 c 0.007,-0.1398 0.0111,-0.28089 0.0111,-0.42197 l 0.003,-0.0565 c 0.005,-0.13211 0.01,-0.26806 0.01,-0.40274 l 0.004,-0.11543 c 0.004,-0.13468 0.008,-0.26807 0.008,-0.40274 l 0.003,-0.11415 c 0.004,-0.17059 0.008,-0.34247 0.008,-0.51305 z m -116.65844,97.10144 c 7.40371,-11.28827 6.87823,-19.76121 -3.27875,-30.31711 -10.159324,-10.55717 -16.071809,-25.99469 -16.071809,-25.99469 0,0 -2.206682,-8.96675 -7.239529,-8.14331 -5.032847,0.82344 -8.724835,14.22288 1.813305,22.42519 10.536907,8.2023 -2.097019,13.76372 -6.152902,6.06676 -4.055883,-7.69825 -15.129505,-27.4851 -20.870404,-31.27009 -5.7409,-3.78499 -9.778279,-1.66355 -8.425085,6.1373 0.67228,3.8722 6.923989,10.48151 12.764806,16.656 5.925931,6.26428 11.428634,12.08221 10.251835,14.1408 -2.335093,4.08769 -10.558987,-4.80338 -10.558987,-4.80338 0,0 -25.751526,-24.36707 -31.356736,-18.01686 -5.168537,5.85257 2.801372,10.82782 15.082629,18.49655 1.043576,0.65157 2.119223,1.32366 3.220776,2.01627 14.051266,8.8449 15.144059,11.17797 13.149424,14.52431 -0.736425,1.23643 -5.439916,-1.69947 -11.225224,-5.31002 -9.86216,-6.15782 -22.866026,-14.27548 -24.702769,-7.00948 -1.5888,6.28865 7.97842,10.14162 16.655148,13.63674 7.22855,2.91153 13.840453,5.57423 12.86719,9.18864 -1.007803,3.74778 -6.471156,0.62205 -12.442729,-2.79482 -6.704296,-3.83629 -14.050031,-8.03813 -16.454203,-3.29631 -4.543132,8.96545 31.344277,19.52008 31.640326,19.59832 11.595286,3.127 41.042254,9.75298 51.333688,-5.93081 z m 47.69487,0 c -7.40372,-11.28827 -6.87823,-19.76121 3.27998,-30.31711 10.1582,-10.55717 16.07057,-25.99469 16.07057,-25.99469 0,0 2.2068,-8.96675 7.23966,-8.14331 5.03284,0.82344 8.72482,14.22288 -1.81208,22.42519 -10.53814,8.2023 2.09579,13.76372 6.15167,6.06676 4.05711,-7.69825 15.12321,-27.4851 20.86411,-31.27009 5.7409,-3.78499 9.78075,-1.66355 8.42632,6.1373 -0.67104,3.8722 -6.92386,10.48151 -12.76469,16.65729 -5.92593,6.26427 -11.42875,12.08092 -10.25319,14.13951 2.3351,4.08769 10.56529,-4.80852 10.56529,-4.80852 0,0 25.75017,-24.36577 31.35784,-18.01556 5.1673,5.85128 -2.8026,10.8278 -15.08497,18.49655 -1.07442,0.67081 -2.1476,1.34289 -3.21954,2.01626 -14.05127,8.8449 -15.14419,11.17797 -13.15078,14.52303 0.73765,1.23771 5.44115,-1.69947 11.22522,-5.31002 9.86339,-6.15654 22.86738,-14.27548 24.70412,-7.0082 1.59004,6.28865 -7.97854,10.14162 -16.65527,13.63674 -7.22855,2.91153 -13.84033,5.57424 -12.86829,9.18863 1.00656,3.74651 6.46868,0.62079 12.43902,-2.79609 6.7043,-3.83629 14.05126,-8.0407 16.45421,-3.29503 4.54435,8.97059 -31.34921,19.51494 -31.6391,19.5919 -11.59529,3.13727 -41.04238,9.76325 -51.3301,-5.92054 z"
     fill="#FFD21E"
     id="path3"
     style="fill:#3d3e3c;fill-opacity:0;stroke-width:1.25784" />
  <path
     fill-rule="evenodd"
     clip-rule="evenodd"
     d="m 158.31667,95.425168 c 1.45804,0.536132 2.54233,2.167615 3.57357,3.720862 1.3939,2.09835 2.69158,4.05177 4.68252,2.95128 2.34866,-1.29928 4.27422,-3.292455 5.53243,-5.729422 1.25945,-2.436963 1.79604,-5.206508 1.54192,-7.959892 -0.18995,-2.058849 -0.81659,-4.048181 -1.8355,-5.824598 -1.01891,-1.776547 -2.40417,-3.296058 -4.05465,-4.44887 -1.65172,-1.152812 -3.52916,-1.910323 -5.49543,-2.218021 -1.9675,-0.307699 -3.9757,-0.157762 -5.88029,0.438781 -1.90459,0.596287 -3.65745,1.624173 -5.134,3.009651 -1.47654,1.385477 -2.63977,3.094045 -3.40456,5.002829 -0.76481,1.908783 -1.1139,3.970326 -1.02138,6.035973 0.0938,2.066289 0.62541,4.083838 1.5592,5.910277 0.92268,1.804636 2.97036,0.952981 5.13152,0.05387 1.69366,-0.704153 3.45885,-1.437808 4.80465,-0.94272 z m -63.373169,0 c -1.458046,0.536132 -2.542328,2.168897 -3.573569,3.720862 -1.393901,2.09963 -2.69282,4.05177 -4.682521,2.95128 -2.953714,-1.62634 -5.218865,-4.33907 -6.354217,-7.607166 -1.135227,-3.268738 -1.059118,-6.859924 0.213403,-10.073509 1.272521,-3.213585 3.650418,-5.819212 6.670003,-7.309094 3.019709,-1.489883 6.464741,-1.757051 9.663559,-0.749688 2.547264,0.797529 4.809581,2.362188 6.502001,4.496199 1.69242,2.134137 2.73722,4.741817 3.0049,7.493662 0.26644,2.751844 -0.25781,5.52421 -1.50615,7.966304 -0.92392,1.804636 -2.9716,0.952981 -5.132764,0.05515 -1.694889,-0.705436 -3.457618,-1.439091 -4.804645,-0.944003 z m 53.568979,59.963412 c 10.04473,-8.22796 13.73425,-21.66204 13.73425,-29.93745 0,-6.54133 -4.23227,-4.48273 -11.00812,-0.99403 l -0.38239,0.19624 c -6.21952,3.20269 -14.49904,7.46737 -23.58778,7.46737 -9.08996,0 -17.36949,-4.26468 -23.58777,-7.46865 -6.995409,-3.60286 -11.383115,-5.86282 -11.383115,0.80035 0,8.53706 3.925128,22.55473 14.698875,30.69804 1.42228,-3.00003 3.42431,-5.66274 5.88153,-7.82265 2.45597,-2.15993 5.31532,-3.7696 8.39671,-4.729 1.07565,-0.33347 2.18337,1.59173 3.31699,3.5631 1.09415,1.90084 2.21297,3.84527 3.35029,3.84527 1.21258,0 2.40295,-1.91622 3.56617,-3.78627 1.21504,-1.95599 2.40047,-3.86066 3.54643,-3.47973 5.76681,1.92521 10.59119,6.1001 13.45793,11.64741 z"
     fill="#32343D"
     id="path4"
     style="fill:#7cffc4;fill-opacity:1;stroke-width:1.25784" />
  <path
     d="m 148.51002,155.38729 c -5.23145,4.28649 -12.18492,7.16083 -21.24035,7.16083 -8.50773,0 -15.16144,-2.53701 -20.27324,-6.39895 1.42228,-3.00003 3.42431,-5.66402 5.88153,-7.82265 2.45597,-2.15993 5.31532,-3.76961 8.39671,-4.729 2.11182,-0.65541 4.3507,7.40837 6.66728,7.40837 2.47943,0 4.8688,-8.0112 7.1126,-7.266 5.76558,1.92649 10.58872,6.10138 13.45547,11.6474 z"
     fill="#FF323D"
     id="path5"
     style="fill:#71cbb3;fill-opacity:1;stroke:none;stroke-width:1.25784;stroke-opacity:0" />
  <path
     fill-rule="evenodd"
     clip-rule="evenodd"
     d="m 70.923991,107.06231 c -1.195055,0.83114 -2.569096,1.3429 -4.000128,1.48912 -1.431031,0.14749 -2.874767,-0.0757 -4.20292,-0.64901 -1.061709,-0.45533 -2.026462,-1.12484 -2.838625,-1.97008 -0.812287,-0.84396 -1.456072,-1.84697 -1.894472,-2.9513 -0.55016,-1.38138 -0.764179,-2.88203 -0.622691,-4.369863 0.141363,-1.48783 0.633669,-2.91666 1.433127,-4.159512 0.960681,-1.495526 2.326212,-2.661035 3.92414,-3.349285 1.59793,-0.688249 3.356219,-0.868329 5.052462,-0.51715 1.696365,0.351051 3.254328,1.217457 4.47689,2.48891 1.222563,1.272351 2.054833,2.893573 2.391342,4.657165 0.337127,1.763593 0.163691,3.591315 -0.49798,5.252305 -0.661795,1.66098 -1.783577,3.07955 -3.221145,4.0787 z m 125.097099,0 c -1.1953,0.83114 -2.56947,1.3429 -4.00038,1.48912 -1.43214,0.14749 -2.87538,-0.0757 -4.20391,-0.64901 -1.06207,-0.45661 -2.0267,-1.12484 -2.83838,-1.97008 -0.81167,-0.84396 -1.45558,-1.84697 -1.89471,-2.9513 -0.54893,-1.38138 -0.76233,-2.88203 -0.62171,-4.369863 0.14186,-1.48783 0.63404,-2.91666 1.43214,-4.159512 0.71792,-1.118437 1.66652,-2.056027 2.77547,-2.747612 1.10895,-0.6912 2.35113,-1.117924 3.63772,-1.249393 1.28781,-0.131595 2.58673,0.0354 3.803,0.488804 1.21751,0.453532 2.32275,1.182056 3.23681,2.133241 1.22367,1.271069 2.05632,2.891008 2.39307,4.6546 0.33799,1.763593 0.16406,3.591315 -0.49835,5.252305 -0.66241,1.66098 -1.78247,3.07955 -3.22077,4.0787 z"
     fill="#FFAD03"
     id="path6"
     style="fill:#71cbb3;fill-opacity:1;stroke-width:1.25784" />
</svg>
