<?xml version="1.0" encoding="UTF-8" standalone="no"?>
<svg
   viewBox="0 0 48 48"
   width="48px"
   height="48px"
   version="1.1"
   id="svg9"
   sodipodi:docname="sqlserver_icon_light.svg"
   inkscape:version="1.4.2 (f4327f4, 2025-05-13)"
   xmlns:inkscape="http://www.inkscape.org/namespaces/inkscape"
   xmlns:sodipodi="http://sodipodi.sourceforge.net/DTD/sodipodi-0.dtd"
   xmlns="http://www.w3.org/2000/svg"
   xmlns:svg="http://www.w3.org/2000/svg">
  <defs
     id="defs9" />
  <sodipodi:namedview
     id="namedview9"
     pagecolor="#ffffff"
     bordercolor="#000000"
     borderopacity="0.25"
     inkscape:showpageshadow="2"
     inkscape:pageopacity="0.0"
     inkscape:pagecheckerboard="0"
     inkscape:deskcolor="#d1d1d1"
     inkscape:zoom="13.479167"
     inkscape:cx="23.962906"
     inkscape:cy="24.890263"
     inkscape:window-width="1440"
     inkscape:window-height="854"
     inkscape:window-x="-6"
     inkscape:window-y="-6"
     inkscape:window-maximized="1"
     inkscape:current-layer="svg9" />
  <path
     fill="#cfd8dc"
     d="M 22.7331,10.689851 C 20.729468,7.9320671 20.29635,4.246388 20.201873,2.7318025 c -5.089446,1.010099 -10.145764,2.8219712 -9.853747,4.156383 0.03681,0.1677867 0.267479,0.3693561 0.650291,0.5652951 L 10.399659,8.4365535 C 9.6683885,8.0604409 9.2573556,7.6268978 9.1457018,7.1088983 8.8156486,5.5988171 10.679407,4.2328749 14.841268,2.9322457 17.682917,2.043764 20.549104,1.5133775 20.670574,1.4919819 l 0.732497,-0.1351303 v 0.6880385 c 0,0.047296 0.0319,4.8286562 2.350863,8.0211099 z"
     id="path1"
     style="stroke-width:1.17544;fill:#3d3e3c;fill-opacity:1" />
  <path
     fill="#cfd8dc"
     d="m 24.778449,46.412674 h -0.307968 c -10.051288,0 -21.237518,-2.897419 -22.5589581,-7.746345 -0.8061153,-2.961605 1.8306301,-6.234011 7.6243535,-9.460247 l 0.6380216,0.961677 c -5.2133699,2.904176 -7.7249649,5.824117 -7.0709932,8.226058 1.1472112,4.209309 11.7481792,6.833089 21.0461112,6.891645 1.105495,-1.516837 7.045227,-10.427555 3.655126,-22.378704 l 1.186474,-0.283774 c 3.863709,13.61663 -3.94837,23.464251 -4.026896,23.562221 z"
     id="path2"
     style="stroke-width:1.17544;fill:#3d3e3c;fill-opacity:1" />
  <path
     fill="#cfd8dc"
     d="m 6.594844,42.252913 c -0.6613336,0 -0.9889329,-0.06644 -1.0429193,-0.07883 C 5.335979,42.125663 5.166658,41.97364 5.1077638,41.777701 c -0.060121,-0.195939 0.00123,-0.406517 0.1582783,-0.54953 0.088341,-0.08108 8.8304589,-8.116827 10.0107979,-14.614343 l 1.209787,0.184678 C 15.471928,32.388401 9.4745282,38.760921 7.0929913,41.107684 9.4720742,40.982688 15.479289,39.960202 27.011523,34.035864 18.011743,33.130491 16.588465,26.518115 16.573741,26.447172 l 1.206106,-0.203822 c 0.05767,0.277017 1.504257,6.768902 11.342054,6.768902 0.0037,0 0.0061,0 0.0098,0 v 0 c 0.278521,0 0.520233,0.171165 0.591397,0.416652 0.07362,0.245487 -0.04417,0.505613 -0.283429,0.633986 -13.784939,7.329693 -20.469438,8.188897 -22.84484,8.190023 z"
     id="path3"
     style="stroke-width:1.17544;fill:#3d3e3c;fill-opacity:1" />
  <path
     fill="#cfd8dc"
     d="m 12.230289,44.948763 c -0.253981,0 -0.484651,-0.144139 -0.574219,-0.365978 -0.09693,-0.237604 -0.0086,-0.506739 0.217173,-0.655382 0.04172,-0.02815 2.224485,-1.506703 4.547128,-4.761091 -0.89323,-0.3626 -1.797502,-0.786008 -2.694413,-1.28036 -1.089544,-0.600204 -1.912837,-1.244325 -2.527546,-1.904211 -3.1532967,0.763486 -6.063655,1.065277 -8.6194208,0.86596 l 0.103065,-1.121582 c 2.3017842,0.179048 4.9188981,-0.07094 7.7556388,-0.720695 -1.9300144,-3.026919 -0.158279,-6.031316 -0.133739,-6.071855 l 1.072366,0.548404 c -0.08221,0.137383 -1.5521091,2.668824 0.305514,5.217156 2.700548,-0.711686 5.581459,-1.764577 8.562981,-3.132771 0.685873,-2.066368 1.222056,-4.416509 1.503031,-7.067315 0.01963,-0.1813 0.132512,-0.34233 0.304287,-0.433543 0.171775,-0.09121 0.381586,-0.0991 0.561949,-0.02365 0.03926,0.01689 4.00481,1.678994 6.875906,2.763415 0.208584,0.07883 0.353365,0.256747 0.376678,0.462821 0.02454,0.206074 -0.0773,0.406517 -0.265024,0.52363 -2.808521,1.756694 -5.598637,3.280288 -8.316362,4.551639 -0.861328,2.505541 -1.92756,4.591052 -3.017104,6.295946 4.542221,1.557377 8.484455,1.581025 8.534761,1.581025 0.279748,0 0.523914,0.173417 0.593851,0.422282 0.06994,0.248865 -0.05153,0.508991 -0.295699,0.633987 -5.570416,2.839988 -14.437684,3.639509 -14.811908,3.672166 -0.01963,-0.0011 -0.03926,0 -0.05889,0 z m 5.380237,-5.329765 c -1.276043,1.817503 -2.53,3.122636 -3.4674,3.975083 2.451474,-0.331069 6.749528,-1.056268 10.316312,-2.408697 -1.707934,-0.192561 -4.180266,-0.620474 -6.848912,-1.566386 z m -5.082085,-3.98184 c 0.482197,0.441426 1.083409,0.872717 1.828177,1.283738 0.903045,0.49773 1.819587,0.920013 2.723859,1.278108 0.925131,-1.423373 1.841673,-3.131645 2.628157,-5.14396 -2.479694,1.083294 -4.886997,1.948128 -7.180193,2.582114 z M 22.877882,25.387525 c -0.251528,1.99092 -0.639249,3.807296 -1.120218,5.461516 2.03676,-0.996586 4.115236,-2.135059 6.210891,-3.407536 -1.900567,-0.738712 -3.990087,-1.597915 -5.090673,-2.05398 z"
     id="path4"
     style="stroke-width:1.17544;fill:#3d3e3c;fill-opacity:1" />
  <path
     fill="#cfd8dc"
     d="m 16.401966,9.9274912 c -0.143554,0 -0.285882,-0.047296 -0.398763,-0.1351303 C 14.027791,8.2406146 11.702695,5.0830698 11.604537,4.9490656 11.446259,4.7339832 11.470798,4.4468313 11.660978,4.2553967 11.84993,4.062836 12.161579,4.0177925 12.406972,4.1405359 c 0.0135,0.00338 1.150892,0.4335431 8.854998,1.6114289 0.222081,0.033783 0.404898,0.1756694 0.478516,0.3693562 0.07484,0.1936867 0.02699,0.4098952 -0.122696,0.5630429 -2.157003,2.1992457 -4.88209,3.1676796 -4.997424,3.2070926 -0.07116,0.023648 -0.146009,0.036035 -0.2184,0.036035 z M 13.60817,5.5875563 c 0.774214,0.9560469 1.889524,2.2476674 2.910358,3.1181318 0.626978,-0.262378 2.033079,-0.9211383 3.366789,-2.0247025 C 16.716069,6.1843818 14.782374,5.8307908 13.60817,5.5875563 Z"
     id="path5"
     style="stroke-width:1.17544;fill:#3d3e3c;fill-opacity:1" />
  <path
     fill="#b71c1c"
     d="m 21.210438,25.467477 c -0.08343,0 -0.168094,-0.01576 -0.24662,-0.0473 -0.244166,-0.09909 -0.391402,-0.331069 -0.363181,-0.574304 0.358273,-3.09561 -4.817061,-4.337682 -4.86982,-4.348943 -0.213492,-0.04955 -0.382813,-0.20157 -0.44048,-0.396382 -0.05767,-0.194813 0.0025,-0.404265 0.158278,-0.547278 0.253982,-0.2331 6.305368,-5.740786 13.89782,-8.765453 0.212265,-0.08446 0.45275,-0.05293 0.631886,0.07883 0.17791,0.132878 0.260117,0.345709 0.213492,0.550656 -1.455179,6.468238 -8.232927,13.562579 -8.520037,13.860991 -0.121469,0.122744 -0.29079,0.189183 -0.461338,0.189183 z m -4.156954,-5.759929 c 1.452725,0.501108 3.997448,1.660976 4.641604,3.779144 1.777871,-2.035963 5.57287,-6.726111 6.990014,-11.186537 -5.382691,2.376041 -9.915095,5.959246 -11.631618,7.407393 z"
     id="path6"
     style="stroke-width:1.17544;fill:#479561;fill-opacity:1" />
  <path
     fill="#b71c1c"
     d="M 10.457326,29.926777 9.8745184,28.935821 c 2.3103726,-1.142977 4.9569346,-3.246505 7.1249796,-5.691238 -1.845354,1.159869 -2.90177,1.953759 -2.934898,1.979659 l -0.78403,-0.867086 c 0.04785,-0.03603 2.164364,-1.629446 5.68207,-3.625996 0.96562,-1.425625 1.707934,-2.891789 2.089519,-4.297144 0.06503,-0.23873 0.12147,-0.469578 0.166867,-0.692543 -2.361905,-0.773621 -4.540993,-1.231938 -6.037889,-1.429003 -0.226988,-0.02928 -0.415941,-0.172291 -0.492012,-0.369356 -0.07607,-0.197065 -0.02577,-0.417778 0.127604,-0.570926 0.104292,-0.103599 2.596256,-2.553963 5.71029,-3.8996355 0.241712,-0.1047259 0.531275,-0.052926 0.712866,0.1283738 0.08221,0.082204 1.766828,1.8186287 1.338617,5.4108427 1.417144,0.506739 2.877231,1.122708 4.283331,1.85579 3.385194,-1.396347 7.229271,-2.653058 11.32365,-3.41204 0.211038,-0.03829 0.445388,0.03153 0.590169,0.189182 0.143555,0.157652 0.182818,0.374987 0.101838,0.566421 -1.595053,3.752119 -5.872249,7.759858 -6.053839,7.928771 -0.123924,0.114861 -0.293245,0.172291 -0.469927,0.166661 -0.175456,-0.009 -0.337416,-0.08558 -0.447842,-0.211704 -1.3742,-1.585529 -3.170475,-2.898545 -5.107851,-3.967201 -2.668646,1.13059 -5.031779,2.340007 -6.974062,3.433436 -2.478468,3.550549 -6.21948,6.810567 -9.366643,8.365692 z M 28.141557,17.580371 c 1.582783,0.936904 3.056367,2.038216 4.274742,3.319702 1.015926,-1.011226 3.453903,-3.567441 4.836691,-6.105638 -3.251454,0.686912 -6.328679,1.681246 -9.111433,2.785936 z m -5.758142,-1.434633 c -0.04049,0.183552 -0.08711,0.371608 -0.138647,0.563043 -0.257662,0.944786 -0.667468,1.915472 -1.192609,2.883906 1.344753,-0.70493 2.83306,-1.432381 4.439156,-2.137311 -1.028196,-0.499982 -2.07725,-0.934651 -3.1079,-1.309638 z m -5.829305,-2.75891 c 1.363157,0.245486 3.04287,0.646373 4.835464,1.222929 0.186499,-2.075376 -0.424529,-3.346727 -0.793845,-3.909771 -1.688302,0.80853 -3.166794,1.945877 -4.041619,2.686842 z"
     id="path7"
     style="stroke-width:1.17544;fill:#479561;fill-opacity:1" />
  <path
     fill="#b71c1c"
     d="m 16.556564,18.82357 c 0,4.932256 -4.478418,8.851035 -7.7053335,11.711293 C 8.3113664,31.01908 6.4831903,31.097906 6.4831903,31.097906 6.9371669,30.669994 7.4524917,30.219559 8.0046255,29.735342 11.072035,27.010215 15.3296,23.28287 15.3296,18.82357 c 0,-5.281343 -2.318962,-7.364602 -4.147138,-9.0312091 C 10.372666,9.0378834 9.685566,8.3171884 9.2683982,7.4388414 L 9.648757,7.2924503 c 0.417168,0.1689129 0.895684,0.3603475 1.263773,0.5067386 0.294471,0.3941301 0.6871,0.7769993 1.141076,1.1936511 1.877255,1.722911 4.502958,4.087692 4.502958,9.83073 z"
     id="path8"
     style="stroke-width:1.17544;fill:#479561;fill-opacity:1" />
  <path
     fill="#b71c1c"
     d="m 47.08956,20.280725 c 0,0 -0.742314,0.09684 -0.950897,0.119365 -10.748204,1.092304 -21.839957,3.93004 -28.18336,6.261038 -2.294423,0.844564 -4.674733,1.869302 -6.846459,3.01791 -0.01227,0.01126 -0.02454,0.01126 -0.04908,0.02252 -1.2760409,0.675653 -4.3802595,2.072 -6.8955355,3.299433 C 7.8451201,29.408777 14.740657,26.638606 17.489056,25.625129 23.709763,23.339175 34.396618,20.580264 44.911699,19.397874 43.672465,18.069093 40.641864,15.253878 34.67882,13.159358 31.194243,11.920664 25.893759,11.22249 21.219026,10.603143 13.783625,9.6234481 9.5505999,8.9703182 9.1457018,7.1122765 9.0598144,6.7406682 9.1211626,6.3690599 9.3052072,6.0087124 c 0.404898,0.6080864 0.9815708,1.035999 1.3619298,1.2837379 0.184045,0.1126086 0.319011,0.1801737 0.368089,0.2026954 l 0.01227,0.011261 c 1.742289,0.8445644 6.44156,1.4639116 10.355575,1.9819112 4.736081,0.6306081 10.097913,1.3400421 13.717456,2.6125191 8.429242,2.984128 11.337146,7.251994 11.459843,7.432167 0.110426,0.168913 0.50919,0.747721 0.50919,0.747721 z"
     id="path9"
     style="stroke-width:1.17544;fill:#479561;fill-opacity:1" />
</svg>
